<mxfile host="app.diagrams.net" agent="Mozilla/5.0 (Windows NT 10.0; Win64; x64) AppleWebKit/537.36 (KHTML, like Gecko) Chrome/130.0.0.0 Safari/537.36 Edg/130.0.0.0" version="24.8.3">
  <diagram id="C5RBs43oDa-KdzZeNtuy" name="Page-1">
    <mxGraphModel dx="435" dy="804" grid="1" gridSize="10" guides="1" tooltips="1" connect="1" arrows="1" fold="1" page="1" pageScale="1" pageWidth="827" pageHeight="1169" math="0" shadow="0">
      <root>
        <mxCell id="WIyWlLk6GJQsqaUBKTNV-0" />
        <mxCell id="WIyWlLk6GJQsqaUBKTNV-1" parent="WIyWlLk6GJQsqaUBKTNV-0" />
        <mxCell id="WIyWlLk6GJQsqaUBKTNV-3" value="Login" style="rounded=1;whiteSpace=wrap;html=1;fontSize=12;glass=0;strokeWidth=1;shadow=0;direction=east;flipV=1;flipH=1;labelBackgroundColor=none;" parent="WIyWlLk6GJQsqaUBKTNV-1" vertex="1">
          <mxGeometry x="250" y="80" width="120" height="40" as="geometry" />
        </mxCell>
        <mxCell id="nsbuWs45aLTLqdAPMKUG-4" style="edgeStyle=orthogonalEdgeStyle;rounded=0;orthogonalLoop=1;jettySize=auto;html=1;exitX=0.5;exitY=0;exitDx=0;exitDy=0;" parent="WIyWlLk6GJQsqaUBKTNV-1" source="WIyWlLk6GJQsqaUBKTNV-7" target="nsbuWs45aLTLqdAPMKUG-20" edge="1">
          <mxGeometry relative="1" as="geometry" />
        </mxCell>
        <mxCell id="nsbuWs45aLTLqdAPMKUG-1" value="" style="verticalLabelPosition=bottom;verticalAlign=top;html=1;shape=mxgraph.flowchart.on-page_reference;fillColor=#1A1A1A;" parent="WIyWlLk6GJQsqaUBKTNV-1" vertex="1">
          <mxGeometry x="295" y="10" width="30" height="30" as="geometry" />
        </mxCell>
        <mxCell id="nsbuWs45aLTLqdAPMKUG-2" value="" style="endArrow=classic;html=1;rounded=0;" parent="WIyWlLk6GJQsqaUBKTNV-1" source="nsbuWs45aLTLqdAPMKUG-1" target="WIyWlLk6GJQsqaUBKTNV-3" edge="1">
          <mxGeometry width="50" height="50" relative="1" as="geometry">
            <mxPoint x="480" y="380" as="sourcePoint" />
            <mxPoint x="530" y="330" as="targetPoint" />
          </mxGeometry>
        </mxCell>
        <mxCell id="nsbuWs45aLTLqdAPMKUG-21" style="edgeStyle=orthogonalEdgeStyle;rounded=0;orthogonalLoop=1;jettySize=auto;html=1;exitX=0;exitY=0.5;exitDx=0;exitDy=0;" parent="WIyWlLk6GJQsqaUBKTNV-1" source="nsbuWs45aLTLqdAPMKUG-20" target="WIyWlLk6GJQsqaUBKTNV-3" edge="1">
          <mxGeometry relative="1" as="geometry" />
        </mxCell>
        <mxCell id="nsbuWs45aLTLqdAPMKUG-20" value="Se crea Usuario" style="rounded=1;whiteSpace=wrap;html=1;" parent="WIyWlLk6GJQsqaUBKTNV-1" vertex="1">
          <mxGeometry x="435" y="80" width="110" height="40" as="geometry" />
        </mxCell>
        <mxCell id="nsbuWs45aLTLqdAPMKUG-25" value="Loop: Timeout y exceso de intentos" style="shape=umlFrame;whiteSpace=wrap;html=1;pointerEvents=0;recursiveResize=0;container=1;collapsible=0;width=160;" parent="WIyWlLk6GJQsqaUBKTNV-1" vertex="1">
          <mxGeometry x="60" y="60" width="330" height="230" as="geometry" />
        </mxCell>
        <mxCell id="q23Thyvy4P3hYIP1huaC-12" value="" style="html=1;points=[];perimeter=orthogonalPerimeter;fillColor=strokeColor;rotation=90;" vertex="1" parent="nsbuWs45aLTLqdAPMKUG-25">
          <mxGeometry x="185" y="70" width="5" height="80" as="geometry" />
        </mxCell>
        <mxCell id="q23Thyvy4P3hYIP1huaC-11" value="La contraseña&#xa; es correcta" style="rhombus;" vertex="1" parent="nsbuWs45aLTLqdAPMKUG-25">
          <mxGeometry x="58" y="140" width="94" height="80" as="geometry" />
        </mxCell>
        <mxCell id="q23Thyvy4P3hYIP1huaC-17" value="" style="endArrow=open;startArrow=none;endFill=0;startFill=0;endSize=8;html=1;verticalAlign=bottom;labelBackgroundColor=none;strokeWidth=1;rounded=0;fontSize=12;curved=1;exitX=0.9;exitY=0.913;exitDx=0;exitDy=0;exitPerimeter=0;" edge="1" parent="nsbuWs45aLTLqdAPMKUG-25" source="q23Thyvy4P3hYIP1huaC-12" target="q23Thyvy4P3hYIP1huaC-11">
          <mxGeometry width="160" relative="1" as="geometry">
            <mxPoint x="296" y="380" as="sourcePoint" />
            <mxPoint x="456" y="380" as="targetPoint" />
          </mxGeometry>
        </mxCell>
        <mxCell id="q23Thyvy4P3hYIP1huaC-14" style="edgeStyle=none;curved=1;rounded=0;orthogonalLoop=1;jettySize=auto;html=1;exitX=0.25;exitY=1;exitDx=0;exitDy=0;fontSize=12;startSize=8;endSize=8;entryX=1.1;entryY=0.513;entryDx=0;entryDy=0;entryPerimeter=0;" edge="1" parent="WIyWlLk6GJQsqaUBKTNV-1" source="WIyWlLk6GJQsqaUBKTNV-3" target="q23Thyvy4P3hYIP1huaC-12">
          <mxGeometry relative="1" as="geometry">
            <mxPoint x="550" y="130" as="targetPoint" />
          </mxGeometry>
        </mxCell>
        <mxCell id="WIyWlLk6GJQsqaUBKTNV-6" value="&lt;div&gt;Tiene cuenta&lt;/div&gt;&lt;div&gt;existente?&lt;br&gt;&lt;/div&gt;" style="rhombus;whiteSpace=wrap;html=1;shadow=0;fontFamily=Helvetica;fontSize=12;align=center;strokeWidth=1;spacing=6;spacingTop=-4;direction=east;flipV=1;flipH=1;labelBackgroundColor=none;" parent="WIyWlLk6GJQsqaUBKTNV-1" vertex="1">
          <mxGeometry x="280" y="210" width="90" height="80" as="geometry" />
        </mxCell>
        <mxCell id="WIyWlLk6GJQsqaUBKTNV-4" value="Yes" style="rounded=0;html=1;jettySize=auto;orthogonalLoop=1;fontSize=11;endArrow=block;endFill=0;endSize=8;strokeWidth=1;shadow=0;labelBackgroundColor=none;edgeStyle=orthogonalEdgeStyle;fontColor=default;entryX=0.5;entryY=0;entryDx=0;entryDy=0;" parent="WIyWlLk6GJQsqaUBKTNV-1" source="WIyWlLk6GJQsqaUBKTNV-6" target="nsbuWs45aLTLqdAPMKUG-23" edge="1">
          <mxGeometry x="0.0122" y="10" relative="1" as="geometry">
            <mxPoint y="-1" as="offset" />
            <mxPoint x="309" y="340" as="targetPoint" />
          </mxGeometry>
        </mxCell>
        <mxCell id="WIyWlLk6GJQsqaUBKTNV-5" value="No" style="edgeStyle=orthogonalEdgeStyle;rounded=0;html=1;jettySize=auto;orthogonalLoop=1;fontSize=11;endArrow=block;endFill=0;endSize=8;strokeWidth=1;shadow=0;labelBackgroundColor=none;fontColor=default;" parent="WIyWlLk6GJQsqaUBKTNV-1" source="WIyWlLk6GJQsqaUBKTNV-6" target="WIyWlLk6GJQsqaUBKTNV-7" edge="1">
          <mxGeometry y="10" relative="1" as="geometry">
            <mxPoint as="offset" />
          </mxGeometry>
        </mxCell>
        <mxCell id="q23Thyvy4P3hYIP1huaC-16" value="" style="endArrow=open;startArrow=none;endFill=0;startFill=0;endSize=8;html=1;verticalAlign=bottom;labelBackgroundColor=none;strokeWidth=1;rounded=0;fontSize=12;curved=1;exitX=0.9;exitY=0.081;exitDx=0;exitDy=0;exitPerimeter=0;" edge="1" parent="WIyWlLk6GJQsqaUBKTNV-1" source="q23Thyvy4P3hYIP1huaC-12" target="WIyWlLk6GJQsqaUBKTNV-6">
          <mxGeometry width="160" relative="1" as="geometry">
            <mxPoint x="330" y="440" as="sourcePoint" />
            <mxPoint x="490" y="440" as="targetPoint" />
          </mxGeometry>
        </mxCell>
        <mxCell id="WIyWlLk6GJQsqaUBKTNV-7" value="Registrar" style="rounded=1;whiteSpace=wrap;html=1;fontSize=12;glass=0;strokeWidth=1;shadow=0;direction=east;flipV=1;flipH=1;labelBackgroundColor=none;" parent="WIyWlLk6GJQsqaUBKTNV-1" vertex="1">
          <mxGeometry x="430" y="230" width="120" height="40" as="geometry" />
        </mxCell>
        <mxCell id="q23Thyvy4P3hYIP1huaC-5" value="" style="edgeStyle=none;curved=1;rounded=0;orthogonalLoop=1;jettySize=auto;html=1;fontSize=12;startSize=8;endSize=8;" edge="1" parent="WIyWlLk6GJQsqaUBKTNV-1" source="WIyWlLk6GJQsqaUBKTNV-12" target="q23Thyvy4P3hYIP1huaC-4">
          <mxGeometry relative="1" as="geometry" />
        </mxCell>
        <mxCell id="WIyWlLk6GJQsqaUBKTNV-12" value="Jugar Partida" style="rounded=1;whiteSpace=wrap;html=1;fontSize=12;glass=0;strokeWidth=1;shadow=0;direction=east;flipV=1;flipH=1;labelBackgroundColor=none;" parent="WIyWlLk6GJQsqaUBKTNV-1" vertex="1">
          <mxGeometry x="435" y="440" width="120" height="40" as="geometry" />
        </mxCell>
        <mxCell id="q23Thyvy4P3hYIP1huaC-0" value="" style="edgeStyle=none;curved=1;rounded=0;orthogonalLoop=1;jettySize=auto;html=1;fontSize=12;startSize=8;endSize=8;" edge="1" parent="WIyWlLk6GJQsqaUBKTNV-1" source="nsbuWs45aLTLqdAPMKUG-23" target="WIyWlLk6GJQsqaUBKTNV-12">
          <mxGeometry relative="1" as="geometry" />
        </mxCell>
        <mxCell id="nsbuWs45aLTLqdAPMKUG-23" value="Ingresa al juego" style="rounded=1;whiteSpace=wrap;html=1;" parent="WIyWlLk6GJQsqaUBKTNV-1" vertex="1">
          <mxGeometry x="270" y="440" width="110" height="40" as="geometry" />
        </mxCell>
        <mxCell id="q23Thyvy4P3hYIP1huaC-1" value="" style="ellipse;html=1;shape=endState;fillColor=strokeColor;" vertex="1" parent="WIyWlLk6GJQsqaUBKTNV-1">
          <mxGeometry x="480" y="640" width="30" height="30" as="geometry" />
        </mxCell>
        <mxCell id="q23Thyvy4P3hYIP1huaC-10" value="" style="edgeStyle=none;curved=1;rounded=0;orthogonalLoop=1;jettySize=auto;html=1;fontSize=12;startSize=8;endSize=8;" edge="1" parent="WIyWlLk6GJQsqaUBKTNV-1" source="q23Thyvy4P3hYIP1huaC-4" target="q23Thyvy4P3hYIP1huaC-1">
          <mxGeometry relative="1" as="geometry">
            <mxPoint x="495" y="625" as="targetPoint" />
          </mxGeometry>
        </mxCell>
        <mxCell id="q23Thyvy4P3hYIP1huaC-4" value="Termina partida" style="rounded=1;whiteSpace=wrap;html=1;fontSize=12;glass=0;strokeWidth=1;shadow=0;direction=east;flipV=1;flipH=1;labelBackgroundColor=none;" vertex="1" parent="WIyWlLk6GJQsqaUBKTNV-1">
          <mxGeometry x="435" y="530" width="120" height="40" as="geometry" />
        </mxCell>
        <mxCell id="q23Thyvy4P3hYIP1huaC-18" value="Yes" style="rounded=0;html=1;jettySize=auto;orthogonalLoop=1;fontSize=11;endArrow=block;endFill=0;endSize=8;strokeWidth=1;shadow=0;labelBackgroundColor=none;edgeStyle=orthogonalEdgeStyle;fontColor=default;exitX=0.5;exitY=1;exitDx=0;exitDy=0;" edge="1" parent="WIyWlLk6GJQsqaUBKTNV-1" source="q23Thyvy4P3hYIP1huaC-11" target="nsbuWs45aLTLqdAPMKUG-23">
          <mxGeometry x="0.0122" y="10" relative="1" as="geometry">
            <mxPoint y="-1" as="offset" />
            <mxPoint x="335" y="450" as="targetPoint" />
            <mxPoint x="160" y="340" as="sourcePoint" />
            <Array as="points">
              <mxPoint x="165" y="370" />
              <mxPoint x="290" y="370" />
            </Array>
          </mxGeometry>
        </mxCell>
        <mxCell id="q23Thyvy4P3hYIP1huaC-19" value="No" style="edgeStyle=orthogonalEdgeStyle;rounded=0;html=1;jettySize=auto;orthogonalLoop=1;fontSize=11;endArrow=block;endFill=0;endSize=8;strokeWidth=1;shadow=0;labelBackgroundColor=none;fontColor=default;" edge="1" parent="WIyWlLk6GJQsqaUBKTNV-1" source="q23Thyvy4P3hYIP1huaC-11" target="WIyWlLk6GJQsqaUBKTNV-3">
          <mxGeometry y="10" relative="1" as="geometry">
            <mxPoint as="offset" />
            <mxPoint x="380" y="260" as="sourcePoint" />
            <mxPoint x="440" y="260" as="targetPoint" />
            <Array as="points">
              <mxPoint x="170" y="110" />
            </Array>
          </mxGeometry>
        </mxCell>
      </root>
    </mxGraphModel>
  </diagram>
</mxfile>
